#!OML:ASF F:\VICON\USERDATA\INSTALL\rory3\rory3.ASF
:FULLY-SPECIFIED
:DEGREES
282
root 2.74968 17.203 1.86144 0.529511 -25.9745 4.84351
lowerback 12.7395 3.35947 2.18749
upperback 5.27509 4.69058 2.69589
thorax -1.64393 2.30608 0.924675
lowerneck 0.57575 6.09485 -6.65901
upperneck 14.6107 6.48356 16.1342
head 3.36246 3.58667 6.23053
rclavicle 3.33958e-014 3.81667e-014
rhumerus -13.0463 7.28034 -77.8888
rradius 71.6836
rwrist -56.4175
rhand -2.79415 6.09204
rfingers 7.12502
rthumb 22.9115 -22.5667
lclavicle 3.33958e-014 3.81667e-014
lhumerus 14.9229 -14.2901 82.8099
lradius 119.06
lwrist 54.1955
lhand -2.53043 15.6468
lfingers 7.12502
lthumb 23.1646 44.274
rfemur 6.6748 10.8456 10.4012
rtibia 47.6055
rfoot -8.54502 -1.62127
rtoes -26.476
lfemur -41.5394 -6.12666 -19.3608
ltibia 47.562
lfoot -0.918311 -17.8518
ltoes 9.96495
283
root 2.75284 17.1903 1.87894 0.101358 -25.2424 5.2868
lowerback 12.9962 3.73744 2.52285
upperback 5.29512 5.24211 2.88965
thorax -1.74979 2.58087 0.8475
lowerneck 1.10696 5.8481 -6.69022
upperneck 14.3574 6.14977 16.2716
head 3.22865 3.40488 6.25244
rclavicle 7.95139e-015 2.8625e-014
rhumerus -8.56508 6.54423 -77.65
rradius 72.6713
rwrist -56.513
rhand -3.16645 5.82907
rfingers 7.12502
rthumb 22.5542 -22.8735
lclavicle 7.95139e-015 2.8625e-014
lhumerus 13.857 -14.3484 82.7831
lradius 119.229
lwrist 54.1268
lhand -2.70023 15.6202
lfingers 7.12502
lthumb 23.0016 44.2678
rfemur 7.46621 10.7786 10.9404
rtibia 47.7294
rfoot -9.60671 -4.47278
rtoes -26.1967
lfemur -41.4233 -6.72672 -20.0061
ltibia 47.7038
lfoot -0.647132 -17.9947
ltoes 12.9079
284
root 2.75228 17.1578 1.88697 -0.220317 -24.8256 5.70219
lowerback 13.3197 4.20076 2.79765
upperback 5.2199 5.90646 3.01455
thorax -1.98655 2.90909 0.704086
lowerneck 1.67085 5.62316 -6.44102
upperneck 14.138 5.84656 16.2837
head 3.11289 3.24506 6.1893
rclavicle 6.75868e-014 2.38542e-014
rhumerus -4.12261 5.73221 -77.6703
rradius 73.6837
rwrist -56.6833
rhand -3.72831 5.86922
rfingers 7.12502
rthumb 22.0148 -22.8979
lclavicle 6.75868e-014 2.38542e-014
lhumerus 12.5852 -14.3115 82.8699
lradius 119.406
lwrist 54.273
lhand -2.41624 15.6033
lfingers 7.12502
lthumb 23.2741 44.2167
rfemur 7.96413 10.8414 11.3944
rtibia 47.8721
rfoot -10.717 -6.76422
rtoes -24.8737
lfemur -41.2068 -6.94227 -20.6235
ltibia 47.7411
lfoot -0.621529 -18.0677
ltoes 14.1951
285
root 2.74856 17.1648 1.89766 -0.459494 -24.422 6.16855
lowerback 13.5726 4.6404 3.00151
upperback 5.15834 6.52805 3.09969
thorax -2.17057 3.21564 0.56629
lowerneck 2.35868 5.37617 -5.84166
upperneck 13.6971 5.58103 15.8077
head 2.94077 3.08971 5.90329
rclavicle -4.77083e-015 4.77083e-015
rhumerus 0.567724 4.89569 -77.8299
rradius 74.5235
rwrist -57.0703
rhand -4.23424 5.6078
rfingers 7.12502
rthumb 21.529 -23.2157
lclavicle -4.77083e-015 4.77083e-015
lhumerus 11.5507 -14.3159 82.7372
lradius 119.55
lwrist 54.314
lhand -2.30825 15.5165
lfingers 7.12502
lthumb 23.3777 44.1167
rfemur 8.55323 10.7426 11.7174
rtibia 47.5614
rfoot -11.8651 -8.80376
rtoes -22.9247
lfemur -41.231 -7.25033 -21.141
ltibia 47.694
lfoot -0.015091 -17.8143
ltoes 16.3862
286
root 2.74125 17.1483 1.89992 -0.709245 -24.0479 6.66811
lowerback 13.7925 5.04814 3.05668
upperback 5.16443 7.08558 3.22314
thorax -2.28652 3.48966 0.561677
lowerneck 2.85371 5.18459 -5.22569
upperneck 13.3295 5.40544 15.2053
head 2.81631 2.98419 5.58599
rclavicle -3.73715e-014 3.81667e-014
rhumerus 5.3073 4.10496 -78.1313
rradius 75.3229
rwrist -57.4435
rhand -4.80901 4.63313
rfingers 7.12502
rthumb 20.9769 -24.2525
lclavicle -3.73715e-014 3.81667e-014
lhumerus 10.9264 -14.3145 82.4224
lradius 119.761
lwrist 53.9811
lhand -2.66405 15.4598
lfingers 7.12502
lthumb 23.0364 44.1031
rfemur 9.12958 10.4516 11.9177
rtibia 47.263
rfoot -13.0353 -11.082
rtoes -21.3027
lfemur -40.98 -7.24857 -21.8666
ltibia 47.5152
lfoot -0.0644207 -17.9169
ltoes 14.3301
287
root 2.73047 17.2163 1.91985 -0.96922 -23.6328 7.09576
lowerback 14.0813 5.39954 3.17438
upperback 5.16187 7.58147 3.36807
thorax -2.44424 3.73194 0.544216
lowerneck 2.64407 5.07383 -5.02246
upperneck 13.7142 5.23306 15.0821
head 2.99516 2.92698 5.53308
rclavicle 2.3059e-014 -2.8625e-014
rhumerus 9.67209 3.2914 -78.684
rradius 76.1601
rwrist -57.485
rhand -3.87518 6.41959
rfingers 7.12502
rthumb 21.8738 -22.364
lclavicle 2.3059e-014 -2.8625e-014
lhumerus 10.4391 -14.2468 82.1482
lradius 119.984
lwrist 53.4961
lhand -2.85798 15.5834
lfingers 7.12502
lthumb 22.8503 44.2497
rfemur 10.0399 9.89984 12.067
rtibia 46.2913
rfoot -13.9727 -13.7089
rtoes -20.8778
lfemur -41.0029 -7.80469 -22.1235
ltibia 47.2901
lfoot 1.27646 -17.673
ltoes 17.308
288
root 2.72558 17.1742 1.9168 -1.02951 -23.0401 7.23822
lowerback 14.3704 5.65117 3.63015
upperback 5.04498 8.00013 3.53271
thorax -2.67908 3.93454 0.366162
lowerneck 2.52722 4.94872 -4.89732
upperneck 14.0916 5.03027 15.0719
head 3.152 2.85223 5.52547
rclavicle -2.46493e-014 -2.8625e-014
rhumerus 13.5846 2.49632 -79.4565
rradius 76.9965
rwrist -57.4431
rhand -3.71146 8.11614
rfingers 7.12502
rthumb 22.031 -20.649
lclavicle -2.46493e-014 -2.8625e-014
lhumerus 9.85104 -14.1337 81.9753
lradius 120.345
lwrist 53.3273
lhand -2.62038 15.9614
lfingers 7.12502
lthumb 23.0783 44.5994
rfemur 10.7651 8.99749 12.3726
rtibia 45.5895
rfoot -15.1863 -16.0234
rtoes -20.989
lfemur -40.5198 -7.68868 -22.716
ltibia 46.9226
lfoot 0.831296 -18.3223
ltoes 12.889
289
root 2.71721 17.2418 1.93766 -0.930904 -22.2784 7.35745
lowerback 14.5577 5.82917 4.18254
upperback 4.7868 8.34064 3.60484
thorax -2.97792 4.09552 0.0531531
lowerneck 2.74214 4.7301 -4.58946
upperneck 14.2327 4.72191 15.0258
head 3.20102 2.71445 5.45876
rclavicle 6.67916e-014 4.13472e-014
rhumerus 17.2209 1.5168 -80.577
rradius 77.9143
rwrist -58.1621
rhand -3.40755 8.41554
rfingers 7.12502
rthumb 22.3228 -20.315
lclavicle 6.67916e-014 4.13472e-014
lhumerus 9.21087 -14.1067 81.8808
lradius 120.77
lwrist 53.3279
lhand -2.25318 16.3435
lfingers 7.12502
lthumb 23.4305 44.9369
rfemur 11.631 7.83709 12.5782
rtibia 44.2261
rfoot -16.1902 -17.8915
rtoes -20.2039
lfemur -40.7282 -8.43536 -22.687
ltibia 46.5688
lfoot 2.18918 -17.9424
ltoes 18.1946
290
root 2.7114 17.2086 1.94725 -0.799651 -21.3972 7.41166
lowerback 14.5571 5.89651 4.71853
upperback 4.56786 8.52462 3.71867
thorax -3.14323 4.18049 -0.160313
lowerneck 2.82674 4.52002 -4.39159
upperneck 14.4623 4.41428 15.0238
head 3.29222 2.58099 5.43042
rclavicle -1.90833e-014 2.8625e-014
rhumerus 20.9347 0.671086 -82.1015
rradius 78.9904
rwrist -59.0957
rhand -3.60528 7.63194
rfingers 7.12502
rthumb 22.133 -21.1212
lclavicle -1.90833e-014 2.8625e-014
lhumerus 8.74245 -14.0655 81.9499
lradius 121.08
lwrist 52.9544
lhand -2.67133 16.3245
lfingers 7.12502
lthumb 23.0294 44.9686
rfemur 12.4537 6.49555 12.7578
rtibia 43.163
rfoot -17.5348 -19.3618
rtoes -18.9689
lfemur -40.2227 -8.43834 -23.2345
ltibia 46.0989
lfoot 1.39836 -18.7661
ltoes 15.7344
291
root 2.6998 17.2551 1.97851 -0.573269 -20.4171 7.22972
lowerback 14.7721 5.98352 5.65461
upperback 3.893 8.83782 3.65904
thorax -3.81093 4.30438 -0.841265
lowerneck 3.76495 4.18285 -3.76402
upperneck 14.6836 3.9105 15.2008
head 3.26267 2.35058 5.36495
rclavicle 1.39149e-013 -6.36111e-015
rhumerus 21.6245 1.07373 -81.4625
rradius 79.1298
rwrist -62.569
rhand -4.5039 7.80732
rfingers 7.12502
rthumb 21.27 -21.0456
lclavicle 1.39149e-013 -6.36111e-015
lhumerus 7.79322 -14.6638 82.0888
lradius 121.345
lwrist 52.6497
lhand -3.15159 16.2663
lfingers 7.12502
lthumb 22.5685 44.9672
rfemur 13.5602 5.0413 13.1182
rtibia 41.4055
rfoot -18.22 -20.8752
rtoes -18.1606
lfemur -40.1494 -8.89128 -23.2136
ltibia 45.6592
lfoot 2.02757 -19.2136
ltoes 17.6806
